<svg viewBox="0 0 55 55" fill="none" xmlns="http://www.w3.org/2000/svg">
    <g clip-path="url(#clip0_7_126)">
        <path d="M0 27.5C0 14.5364 -3.27826e-07 8.05456 4.02729 4.02729C8.05456 -3.27826e-07 14.5364 0 27.5 0C40.4635 0 46.9455 -3.27826e-07 50.9726 4.02729C55 8.05456 55 14.5364 55 27.5C55 40.4635 55 46.9455 50.9726 50.9726C46.9455 55 40.4635 55 27.5 55C14.5364 55 8.05456 55 4.02729 50.9726C-3.27826e-07 46.9455 0 40.4635 0 27.5Z"
              fill="#ECE9FF"/>
        <path d="M11.9306 33.8113V20.3186H10.3439C9.60987 20.2701 9.04048 19.7492 9.04048 19.1151C9.04048 18.4809 9.60987 17.9547 10.3439 17.9142H11.9306V14.2415C11.9306 11.632 14.0544 9.5083 16.6638 9.5083H39.0239C41.6361 9.5083 43.7571 11.632 43.7571 14.2415V39.7697C43.7578 40.3917 43.6359 41.0078 43.3984 41.5827C43.1608 42.1575 42.8123 42.68 42.3727 43.1201C41.9331 43.5602 41.4111 43.9093 40.8365 44.1475C40.2619 44.3857 39.6459 44.5083 39.0239 44.5083H16.6638C15.4087 44.5076 14.2052 44.0087 13.3177 43.1212C12.4302 42.2337 11.9313 41.0302 11.9306 39.7751V36.3317H10.3439C9.59368 36.3048 9 35.7489 9 35.0715C9 34.3969 9.59368 33.8383 10.3439 33.8113H11.9306ZM14.2513 33.8113H15.6006C16.3373 33.8572 16.9067 34.405 16.9067 35.0715C16.9067 35.7354 16.3373 36.2859 15.6006 36.3317H14.2513V39.9667C14.2513 41.2053 15.2579 42.2091 16.4911 42.2091H39.1966C40.4325 42.2091 41.4364 41.2053 41.4364 39.9667V14.0499C41.4343 13.4566 41.1976 12.8881 40.778 12.4685C40.3584 12.0489 39.79 11.8123 39.1966 11.8102H16.4938V11.8075C15.9002 11.8089 15.3314 12.0453 14.9116 12.465C14.4919 12.8848 14.2555 13.4536 14.254 14.0472V17.9169H15.6006C16.3724 17.9169 16.9985 18.4566 16.9985 19.1178C16.9958 19.7789 16.3697 20.3159 15.6006 20.3159H14.2513V33.8113ZM33.5675 20.3186H21.6291C21.2688 20.3049 20.9256 20.1611 20.6631 19.9139C20.5446 19.8036 20.452 19.6685 20.3918 19.5183C20.3316 19.3681 20.3054 19.2065 20.315 19.0449C20.3581 18.4378 20.9221 17.952 21.6291 17.9169H33.5675C34.3365 17.9169 34.9707 18.4566 34.9707 19.1178C34.9626 19.7789 34.3392 20.3159 33.5675 20.3159V20.3186ZM33.5675 28.2685H21.6291C20.887 28.2307 20.3069 27.6775 20.3069 27.0083C20.3069 26.3391 20.887 25.7859 21.6291 25.7481H33.5675C34.3096 25.7859 34.8897 26.3391 34.8897 27.0083C34.8897 27.6775 34.3096 28.2307 33.5675 28.2685ZM33.5675 36.3317H21.2298C20.8672 36.3149 20.5238 36.1639 20.2664 35.9081C20.1469 35.7895 20.054 35.6468 19.994 35.4895C19.934 35.3323 19.9082 35.164 19.9183 34.996C19.9588 34.3591 20.5227 33.8491 21.2298 33.8113H33.5648C33.928 33.8265 34.2725 33.9766 34.5308 34.2323C34.6513 34.3508 34.745 34.4938 34.8055 34.6516C34.866 34.8094 34.892 34.9784 34.8817 35.1471C34.8412 35.7839 34.2772 36.294 33.5675 36.3317Z"
              fill="#51149B"/>
        <path fill-rule="evenodd" clip-rule="evenodd"
              d="M14.2513 33.8113H15.6006C16.3373 33.8572 16.9067 34.405 16.9067 35.0715C16.9067 35.7354 16.3373 36.2859 15.6006 36.3317H14.2513V39.9667C14.2513 41.2053 15.2579 42.2091 16.4911 42.2091H39.1966C40.4325 42.2091 41.4364 41.2053 41.4364 39.9667V14.0499C41.4343 13.4566 41.1976 12.8881 40.778 12.4685C40.3584 12.0489 39.79 11.8123 39.1966 11.8102H16.4938V11.8075C15.9002 11.8089 15.3314 12.0453 14.9116 12.465C14.4919 12.8848 14.2555 13.4536 14.254 14.0472V17.9169H15.6006C16.3724 17.9169 16.9985 18.4566 16.9985 19.1178C16.9958 19.7789 16.3697 20.3159 15.6006 20.3159H14.2513V33.8113ZM21.6291 20.3186H33.5675V20.3159C34.3392 20.3159 34.9626 19.7789 34.9707 19.1178C34.9707 18.4566 34.3365 17.9169 33.5675 17.9169H21.6291C20.9221 17.952 20.3581 18.4378 20.315 19.0449C20.3054 19.2065 20.3316 19.3681 20.3918 19.5183C20.452 19.6685 20.5446 19.8036 20.6631 19.9139C20.9256 20.1611 21.2688 20.3049 21.6291 20.3186ZM21.6291 28.2685H33.5675C34.3096 28.2307 34.8897 27.6775 34.8897 27.0083C34.8897 26.3391 34.3096 25.7859 33.5675 25.7481H21.6291C20.887 25.7859 20.3069 26.3391 20.3069 27.0083C20.3069 27.6775 20.887 28.2307 21.6291 28.2685ZM21.2298 36.3317H33.5675C34.2772 36.294 34.8412 35.7839 34.8817 35.1471C34.892 34.9784 34.866 34.8094 34.8055 34.6516C34.745 34.4938 34.6513 34.3508 34.5308 34.2323C34.2725 33.9766 33.928 33.8265 33.5648 33.8113H21.2298C20.5227 33.8491 19.9588 34.3591 19.9183 34.996C19.9082 35.164 19.934 35.3323 19.994 35.4895C20.054 35.6468 20.1469 35.7895 20.2664 35.9081C20.5238 36.1639 20.8672 36.3149 21.2298 36.3317Z"
              fill="#A07DCF"/>
    </g>
    <defs>
        <clipPath id="clip0_7_126">
            <rect width="55" height="55" fill="white"/>
        </clipPath>
    </defs>
</svg>
