<svg viewBox="0 0 55 55" fill="none" xmlns="http://www.w3.org/2000/svg">
<g clip-path="url(#clip0_7_123)">
<path d="M0 27.4999C0 14.5363 0 8.05452 4.02727 4.02727C8.05452 0 14.5363 0 27.4999 0C40.4633 0 46.9453 0 50.9724 4.02727C54.9997 8.05452 54.9997 14.5363 54.9997 27.4999C54.9997 40.4633 54.9997 46.9453 50.9724 50.9724C46.9453 54.9997 40.4633 54.9997 27.4999 54.9997C14.5363 54.9997 8.05452 54.9997 4.02727 50.9724C0 46.9453 0 40.4633 0 27.4999Z" fill="#ECE9FF"/>
<path fill-rule="evenodd" clip-rule="evenodd" d="M43.9998 21.3841C43.9998 27.119 39.3317 31.7681 33.573 31.7681C32.5225 31.7681 30.13 31.5267 28.9659 30.5606L27.5109 32.0098C26.6557 32.8618 26.8867 33.1126 27.267 33.5256C27.4259 33.6981 27.6107 33.8988 27.7535 34.1832C27.7535 34.1832 28.9659 35.8736 27.7535 37.564C27.0261 38.5301 24.9892 39.8822 22.6613 37.564L22.1765 38.0469C22.1765 38.0469 23.6312 39.7373 22.4188 41.4277C21.6915 42.3938 19.7516 43.3599 18.0542 41.6694L16.3569 43.3599C15.1929 44.519 13.7704 43.8428 13.2047 43.3599L11.7498 41.9109C10.3919 40.5584 11.184 39.0935 11.7498 38.5301L24.3589 25.9725C24.3589 25.9725 23.1464 24.0404 23.1464 21.3841C23.1464 15.6491 27.8145 10.9999 33.573 10.9999C39.3317 10.9999 43.9998 15.6491 43.9998 21.3841ZM33.573 25.0062C35.5816 25.0062 37.2101 23.3845 37.2101 21.3838C37.2101 19.3832 35.5816 17.7614 33.573 17.7614C31.5641 17.7614 29.9356 19.3832 29.9356 21.3838C29.9356 23.3845 31.5641 25.0062 33.573 25.0062Z" fill="#51149B"/>
<path d="M33.573 25.0062C35.5816 25.0062 37.2101 23.3845 37.2101 21.3838C37.2101 19.3832 35.5816 17.7614 33.573 17.7614C31.5641 17.7614 29.9356 19.3832 29.9356 21.3838C29.9356 23.3845 31.5641 25.0062 33.573 25.0062Z" fill="#A07DCF"/>
</g>
<defs>
<clipPath id="clip0_7_123">
<rect width="55" height="55" fill="white"/>
</clipPath>
</defs>
</svg>
