<svg width="153" height="28" viewBox="0 0 153 28" fill="none" xmlns="http://www.w3.org/2000/svg">
    <path d="M139.473 22.2134V9.16759H149.617C150.187 9.16759 150.708 9.31058 151.18 9.5952C151.653 9.88062 152.028 10.2554 152.305 10.7196C152.582 11.1845 152.721 11.7024 152.721 12.2715V22.2134H149.775V12.3844C149.775 12.3097 149.749 12.2459 149.696 12.1931C149.643 12.1409 149.58 12.1145 149.505 12.1145H142.69C142.615 12.1145 142.551 12.1409 142.499 12.1931C142.446 12.2459 142.42 12.3097 142.42 12.3844V22.2134H139.473Z"
          fill="white"/>
    <path d="M133.918 9.16752H136.865V22.2133H133.918V9.16752ZM133.918 4.89406H136.865V7.8636H133.918V4.89406Z"
          fill="white"/>
    <path d="M121.526 19.2672H128.611V16.86H121.256V18.9966C121.256 19.0721 121.282 19.1358 121.334 19.1879C121.387 19.2408 121.45 19.2672 121.526 19.2672ZM121.413 22.2134C120.843 22.2134 120.322 22.0711 119.85 21.7858C119.377 21.5012 119.003 21.1264 118.725 20.6614C118.447 20.1972 118.309 19.6794 118.309 19.1095V14.2061H128.611V12.3843C128.611 12.3097 128.584 12.2459 128.532 12.1931C128.479 12.1409 128.416 12.1145 128.341 12.1145H118.309V9.16757H128.453C129.023 9.16757 129.544 9.31068 130.017 9.59518C130.489 9.88059 130.863 10.2553 131.141 10.7195C131.419 11.1845 131.557 11.7024 131.557 12.2716V22.2134H121.413Z"
          fill="white"/>
    <path d="M103.284 22.2134V4.89413H106.23V9.16759H113.428C113.998 9.16759 114.515 9.31058 114.98 9.5952C115.445 9.88062 115.82 10.2554 116.105 10.7196C116.389 11.1845 116.532 11.7024 116.532 12.2715V22.2134H113.586V12.3844C113.586 12.3097 113.56 12.2459 113.507 12.1931C113.454 12.1409 113.391 12.1145 113.315 12.1145H106.501C106.426 12.1145 106.362 12.1409 106.31 12.1931C106.257 12.2459 106.23 12.3097 106.23 12.3844V22.2134H103.284Z"
          fill="white"/>
    <path d="M87.9672 22.2134C87.3972 22.2134 86.8763 22.0711 86.4035 21.7858C85.9315 21.5012 85.5529 21.1225 85.2682 20.6506C84.9828 20.1778 84.8406 19.6568 84.8406 19.0869V9.1458C84.8406 8.57577 84.9828 8.05482 85.2682 7.58214C85.5529 7.11016 85.9315 6.73151 86.4035 6.44609C86.8763 6.16148 87.3972 6.01917 87.9672 6.01917H100.99V9.01049H88.5969C88.3567 9.01049 88.1654 9.07815 88.0231 9.21266C87.8808 9.34797 87.8092 9.54314 87.8092 9.79737V18.4345C87.8092 18.6748 87.8808 18.866 88.0231 19.0083C88.1654 19.1507 88.3567 19.2221 88.5969 19.2221H100.99V22.2134H87.9672Z"
          fill="white"/>
    <path d="M79.7577 9.16752H82.7047V22.2133H79.7577V9.16752ZM79.7577 4.89406H82.7047V7.8636H79.7577V4.89406Z"
          fill="white"/>
    <path d="M74.765 9.16752H77.7119V22.2133H74.765V9.16752ZM74.765 4.89406H77.7119V7.8636H74.765V4.89406Z"
          fill="white"/>
    <path d="M56.9512 22.2134V4.89413H59.9425V11.8128H63.744L69.9449 4.89413H73.1835V5.74866L66.4429 13.3197L72.5381 21.3589V22.2134H69.277L63.744 14.8266H59.9425V22.2134H56.9512Z"
          fill="white"/>
    <path d="M21.2315 16.4807C20.5879 15.8365 20.2327 14.9806 20.2327 14.0699C20.2327 13.1592 20.5879 12.303 21.2315 11.6585L23.0953 9.79534C23.2673 10.9706 23.8049 12.1021 24.707 13.005L37.3802 25.686H30.4372L21.2315 16.4807ZM20.2131 25.686C20.2131 25.686 15.9598 21.4228 15.8873 21.3339C15.8789 21.3236 15.8718 21.3122 15.8633 21.3017C14.9459 20.1497 14.8818 18.5378 15.6729 17.3224C15.6768 17.3166 15.6803 17.3098 15.684 17.3037C15.7362 17.2256 15.7935 17.1499 15.8519 17.0753C15.8643 17.0594 15.8752 17.0426 15.8878 17.0271C15.9572 16.9421 16.0319 16.8599 16.1106 16.7806C16.1139 16.7773 16.1165 16.7737 16.1197 16.7707L17.9802 14.9104C17.9886 14.9686 18.0021 15.0254 18.0127 15.0831C18.0235 15.1443 18.0343 15.2058 18.0466 15.2664C18.0728 15.3876 18.1036 15.5074 18.1371 15.6263C18.1501 15.6725 18.1606 15.7196 18.1746 15.765C18.2247 15.9272 18.2816 16.0867 18.3457 16.2433C18.3602 16.2787 18.3776 16.313 18.3932 16.3478C18.4459 16.4693 18.5021 16.5899 18.5636 16.7077C18.591 16.7605 18.6207 16.8119 18.6497 16.8638C18.7059 16.9632 18.7641 17.061 18.8258 17.157C18.8597 17.2098 18.8939 17.2615 18.9295 17.3129C18.9968 17.4107 19.0688 17.5058 19.1429 17.6001C19.1766 17.6428 19.2087 17.6868 19.2438 17.7288C19.3554 17.8619 19.4714 17.9922 19.5958 18.1166L27.1654 25.686H20.2131ZM14.4835 15.135C14.4829 15.1356 14.4827 15.1362 14.4821 15.1366C14.3544 15.2643 14.2361 15.3977 14.1225 15.5349C14.0916 15.5717 14.0631 15.61 14.0338 15.6479C13.9492 15.7542 13.8693 15.8632 13.7934 15.9749C13.768 16.0118 13.7435 16.0487 13.7193 16.086C13.6351 16.2165 13.5566 16.3494 13.4835 16.4854C13.4754 16.5012 13.4659 16.5162 13.4577 16.5324C13.2051 17.0149 13.0247 17.5315 12.9192 18.0695C12.9166 18.0831 12.9142 18.0969 12.9115 18.1103C12.8971 18.1876 12.8794 18.2635 12.8683 18.3416L11.0074 16.4807C10.3635 15.8365 10.0091 14.9806 10.0091 14.0699C10.0091 13.1592 10.3635 12.303 11.0074 11.6585L20.3527 2.31338H27.3046L14.4837 15.1346L14.4835 15.135ZM26.3432 11.3693C25.0136 10.0397 25.015 7.87747 26.3437 6.5482L30.5764 2.31338H37.5282L28.2259 11.6164L29.8613 13.2526L43.1139 4.99233e-08H19.3947L9.85062 9.54398V4.99233e-08H7.14804V28H9.85062V18.5955L19.2554 28H42.9634L26.3432 11.3693ZM2.70281 4.99233e-08H0V28H2.70281V4.99233e-08Z"
          fill="white"/>
</svg>
