<svg viewBox="0 0 55 55" fill="none" xmlns="http://www.w3.org/2000/svg">
<g clip-path="url(#clip0_7_125)">
<path d="M0 27.5C0 14.5364 -3.27826e-07 8.05456 4.02729 4.02729C8.05456 -3.27826e-07 14.5364 0 27.5 0C40.4635 0 46.9455 -3.27826e-07 50.9726 4.02729C55 8.05456 55 14.5364 55 27.5C55 40.4635 55 46.9455 50.9726 50.9726C46.9455 55 40.4635 55 27.5 55C14.5364 55 8.05456 55 4.02729 50.9726C-3.27826e-07 46.9455 0 40.4635 0 27.5Z" fill="#ECE9FF"/>
<path d="M9.20243 14.6429C7.3691 14.6429 5.53577 20.1429 5.53577 21.9762C5.53577 23.8095 7.3691 34.8095 9.20243 34.8095C11.0358 34.8095 22.0358 36.6429 22.0358 36.6429L27.5358 40.3095L33.0358 36.6429C33.0358 36.6429 44.0358 34.8095 45.8691 34.8095C47.7024 34.8095 49.5358 23.8095 49.5358 21.9762C49.5358 20.1429 47.7024 14.6429 45.8691 14.6429C44.0358 14.6429 33.0358 18.3095 33.0358 18.3095L27.5358 14.6429L22.0358 18.3095C22.0358 18.3095 11.0358 14.6429 9.20243 14.6429ZM16.7828 23.0074C17.3719 22.9836 17.9612 23.045 18.5052 23.2366C20.1591 23.604 22.8522 26.7529 22.8522 26.7529C22.8522 26.7529 19.8459 28.1224 17.5205 28.3105C15.195 28.4986 12.7645 25.9043 12.8082 24.3753C13.2599 23.9236 15.0156 23.0788 16.7828 23.0074ZM38.2887 23.0074C40.056 23.0788 41.8117 23.9236 42.2633 24.3753C42.307 25.9043 39.8765 28.4986 37.5511 28.3105C35.2256 28.1224 32.2194 26.7529 32.2194 26.7529C32.2194 26.7529 34.9124 23.604 36.5664 23.2366C37.1104 23.045 37.6996 22.9836 38.2887 23.0074Z" fill="#51149B"/>
<path d="M16.7828 23.0074C17.3719 22.9836 17.9612 23.045 18.5052 23.2366C20.1591 23.604 22.8522 26.7529 22.8522 26.7529C22.8522 26.7529 19.8459 28.1224 17.5205 28.3105C15.195 28.4986 12.7645 25.9043 12.8082 24.3753C13.2599 23.9236 15.0156 23.0788 16.7828 23.0074Z" fill="#A07DCF"/>
<path d="M38.2887 23.0074C40.056 23.0788 41.8117 23.9236 42.2633 24.3753C42.307 25.9043 39.8765 28.4986 37.5511 28.3105C35.2256 28.1224 32.2194 26.7529 32.2194 26.7529C32.2194 26.7529 34.9124 23.604 36.5664 23.2366C37.1104 23.045 37.6996 22.9836 38.2887 23.0074Z" fill="#A07DCF"/>
</g>
<defs>
<clipPath id="clip0_7_125">
<rect width="55" height="55" fill="white"/>
</clipPath>
</defs>
</svg>
