<svg viewBox="0 0 55 56" fill="none" xmlns="http://www.w3.org/2000/svg">
<g clip-path="url(#clip0_7_124)">
<path d="M0 27.9917C0 15.0281 -4.76837e-07 8.54626 4.02729 4.51899C8.05456 0.491699 14.5364 0.491699 27.5 0.491699C40.4635 0.491699 46.9455 0.491699 50.9726 4.51899C55 8.54626 55 15.0281 55 27.9917C55 40.9552 55 47.4372 50.9726 51.4643C46.9455 55.4917 40.4635 55.4917 27.5 55.4917C14.5364 55.4917 8.05456 55.4917 4.02729 51.4643C-4.76837e-07 47.4372 0 40.9552 0 27.9917Z" fill="#ECE9FF"/>
<path d="M43.2005 25.9548V18.2685C43.2005 16.8328 42.115 15.2045 40.7668 14.6617L31.0144 10.6697C28.8259 9.77676 26.3571 9.77676 24.1685 10.6697L14.4162 14.6617C13.0855 15.2045 12 16.8328 12 18.2685V25.9548C12 34.5166 18.2156 42.5356 26.7073 44.8818C27.2851 45.0394 27.9154 45.0394 28.4932 44.8818C36.9849 42.5356 43.2005 34.5166 43.2005 25.9548ZM28.9134 29.0189V33.6237C28.9134 34.3415 28.3181 34.9368 27.6002 34.9368C26.8824 34.9368 26.2871 34.3415 26.2871 33.6237V29.0189C24.5187 28.4586 23.2231 26.8128 23.2231 24.8693C23.2231 22.4531 25.184 20.4921 27.6002 20.4921C30.0164 20.4921 31.9774 22.4531 31.9774 24.8693C31.9774 26.8303 30.6818 28.4586 28.9134 29.0189Z" fill="#51149B"/>
<path d="M28.9134 29.0189V33.6237C28.9134 34.3415 28.3181 34.9368 27.6002 34.9368C26.8824 34.9368 26.2871 34.3415 26.2871 33.6237V29.0189C24.5187 28.4586 23.2231 26.8128 23.2231 24.8693C23.2231 22.4531 25.184 20.4921 27.6002 20.4921C30.0164 20.4921 31.9774 22.4531 31.9774 24.8693C31.9774 26.8303 30.6818 28.4586 28.9134 29.0189Z" fill="#A07DCF"/>
</g>
<defs>
<clipPath id="clip0_7_124">
<rect width="55" height="55" fill="white" transform="translate(0 0.491699)"/>
</clipPath>
</defs>
</svg>
